<?xml version="1.0" encoding="UTF-8" standalone="no"?>
<svg
   xmlns:dc="http://purl.org/dc/elements/1.1/"
   xmlns:cc="http://creativecommons.org/ns#"
   xmlns:rdf="http://www.w3.org/1999/02/22-rdf-syntax-ns#"
   xmlns:svg="http://www.w3.org/2000/svg"
   xmlns="http://www.w3.org/2000/svg"
   xmlns:sodipodi="http://sodipodi.sourceforge.net/DTD/sodipodi-0.dtd"
   xmlns:inkscape="http://www.inkscape.org/namespaces/inkscape"
   width="772.68829"
   height="118.17876"
   viewBox="47 32 436.13962 63.370068"
   id="svg2837"
   version="1.1"
   inkscape:version="0.48.0 r9654"
   sodipodi:docname="Setup.svg">
  <metadata
     id="metadata3061">
    <rdf:RDF>
      <cc:Work
         rdf:about="">
        <dc:format>image/svg+xml</dc:format>
        <dc:type
           rdf:resource="http://purl.org/dc/dcmitype/StillImage" />
        <dc:title />
      </cc:Work>
    </rdf:RDF>
  </metadata>
  <defs
     id="defs3059">
    <marker
       inkscape:stockid="Arrow1Lstart"
       orient="auto"
       refY="0"
       refX="0"
       id="Arrow1Lstart"
       style="overflow:visible">
      <path
         id="path5250"
         d="M 0,0 5,-5 -12.5,0 5,5 0,0 z"
         style="fill-rule:evenodd;stroke:#000000;stroke-width:1pt;marker-start:none"
         transform="matrix(0.8,0,0,0.8,10,0)"
         inkscape:connector-curvature="0" />
    </marker>
    <inkscape:perspective
       sodipodi:type="inkscape:persp3d"
       inkscape:vp_x="0 : 194.8819 : 1"
       inkscape:vp_y="0 : 1000 : 0"
       inkscape:vp_z="1594.4882 : 194.8819 : 1"
       inkscape:persp3d-origin="797.24408 : 129.92126 : 1"
       id="perspective3063" />
    <inkscape:perspective
       id="perspective4066"
       inkscape:persp3d-origin="0.5 : 0.33333333 : 1"
       inkscape:vp_z="1 : 0.5 : 1"
       inkscape:vp_y="0 : 1000 : 0"
       inkscape:vp_x="0 : 0.5 : 1"
       sodipodi:type="inkscape:persp3d" />
  </defs>
  <sodipodi:namedview
     pagecolor="#ffffff"
     bordercolor="#666666"
     borderopacity="1"
     objecttolerance="10"
     gridtolerance="10"
     guidetolerance="10"
     inkscape:pageopacity="0"
     inkscape:pageshadow="2"
     inkscape:window-width="1440"
     inkscape:window-height="873"
     id="namedview3057"
     showgrid="false"
     showguides="true"
     inkscape:guide-bbox="true"
     inkscape:zoom="1.3421235"
     inkscape:cx="469.28674"
     inkscape:cy="37.935349"
     inkscape:window-x="0"
     inkscape:window-y="0"
     inkscape:window-maximized="1"
     inkscape:current-layer="svg2837"
     fit-margin-top="0"
     fit-margin-left="0"
     fit-margin-right="0"
     fit-margin-bottom="0" />
  <rect
     style="fill:#ffffff;stroke:none"
     id="rect3922"
     width="771.91107"
     height="117.72389"
     x="0"
     y="-0.29022151"
     transform="matrix(0.56444445,0,0,0.56444445,47,30.332362)" />
  <g
     transform="matrix(0.32145773,0,0,0.32145773,218.25845,19.940157)"
     id="g3462">
    <rect
       style="fill:#ffffff"
       x="137"
       y="40"
       width="686"
       height="199"
       id="rect3464" />
    <rect
       style="fill:none;stroke:#ffffff;stroke-width:2"
       x="137"
       y="40"
       width="686"
       height="199"
       id="rect3466" />
  </g>
  <g
     transform="matrix(0.32145773,0,0,0.32145773,218.25845,19.940157)"
     id="g3468">
    <rect
       style="fill:#ffffff"
       x="508"
       y="107.25"
       width="100"
       height="125"
       id="rect3470" />
    <rect
       style="fill:none;stroke:#000000;stroke-width:2"
       x="508"
       y="107.25"
       width="100"
       height="125"
       id="rect3472" />
  </g>
  <g
     transform="matrix(0.32145773,0,0,0.32145773,218.25845,19.940157)"
     id="g3474">
    <rect
       style="fill:#ffffff"
       x="358.5"
       y="144.8"
       width="116.5"
       height="53"
       id="rect3476" />
    <rect
       style="fill:none;stroke:#000000;stroke-width:2"
       x="358.5"
       y="144.8"
       width="116.5"
       height="53"
       id="rect3478" />
  </g>
  <text
     style="font-size:4.53612185px;font-style:normal;font-weight:normal;text-anchor:middle;fill:#000000;font-family:Bitstream Vera Serif"
     x="352.22684"
     y="73.738045"
     id="text3480">
    <tspan
       x="352.22684"
       y="73.738045"
       id="tspan3482">Approche</tspan>
    <tspan
       x="352.22684"
       y="79.407921"
       id="tspan3484">Sélective</tspan>
  </text>
  <g
     transform="matrix(0.32145773,0,0,0.32145773,218.25845,19.940157)"
     id="g3490">
    <polyline
       style="fill:none;stroke:#000000;stroke-width:2"
       points="148.8,131.3 313,131.3 313,162.467 348.764,162.467 "
       id="polyline3492" />
    <polygon
       style="fill:#000000"
       points="348.764,162.467 346.264,157.467 356.264,162.467 346.264,167.467 "
       id="polygon3494" />
    <polygon
       style="fill:none;stroke:#000000;stroke-width:2"
       points="348.764,162.467 346.264,157.467 356.264,162.467 346.264,167.467 "
       id="polygon3496" />
  </g>
  <g
     transform="matrix(0.32145773,0,0,0.32145773,218.25845,19.940157)"
     id="g3498">
    <polyline
       style="fill:none;stroke:#000000;stroke-width:2"
       points="149.8,211.3 313,211.3 313,180.133 348.764,180.133 "
       id="polyline3500" />
    <polygon
       style="fill:#000000"
       points="348.764,180.133 346.264,175.133 356.264,180.133 346.264,185.133 "
       id="polygon3502" />
    <polygon
       style="fill:none;stroke:#000000;stroke-width:2"
       points="348.764,180.133 346.264,175.133 356.264,180.133 346.264,185.133 "
       id="polygon3504" />
  </g>
  <g
     transform="matrix(0.32145773,0,0,0.32145773,218.25845,19.940157)"
     id="g3506">
    <rect
       style="fill:#ffffff"
       x="529.5"
       y="116.6"
       width="58"
       height="29.4"
       id="rect3508" />
    <rect
       style="fill:none;stroke:#000000;stroke-width:2"
       x="529.5"
       y="116.6"
       width="58"
       height="29.4"
       id="rect3510" />
  </g>
  <text
     style="font-size:4.53612185px;font-style:normal;font-weight:normal;text-anchor:middle;fill:#000000;font-family:Bitstream Vera Serif"
     x="397.79349"
     y="63.714661"
     id="text3512">
    <tspan
       x="397.79349"
       y="63.714661"
       id="tspan3514">PSNR</tspan>
  </text>
  <g
     transform="matrix(0.32145773,0,0,0.32145773,218.25845,19.940157)"
     id="g3516">
    <rect
       style="fill:#ffffff"
       x="529.5"
       y="156.60001"
       width="58"
       height="29.4"
       id="rect3518" />
    <rect
       style="fill:none;stroke:#000000;stroke-width:2"
       x="529.5"
       y="156.60001"
       width="58"
       height="29.4"
       id="rect3520" />
  </g>
  <text
     style="font-size:4.53612185px;font-style:normal;font-weight:normal;text-anchor:middle;fill:#000000;font-family:Bitstream Vera Serif"
     x="397.79349"
     y="76.572975"
     id="text3522">
    <tspan
       x="397.79349"
       y="76.572975"
       id="tspan3524">PSNR</tspan>
  </text>
  <g
     transform="matrix(0.32145773,0,0,0.32145773,218.25845,19.940157)"
     id="g3526">
    <rect
       style="fill:#ffffff"
       x="529.5"
       y="196.60001"
       width="58"
       height="29.4"
       id="rect3528" />
    <rect
       style="fill:none;stroke:#000000;stroke-width:2"
       x="529.5"
       y="196.60001"
       width="58"
       height="29.4"
       id="rect3530" />
  </g>
  <text
     style="font-size:4.53612185px;font-style:normal;font-weight:normal;text-anchor:middle;fill:#000000;font-family:Bitstream Vera Serif"
     x="397.79349"
     y="89.431297"
     id="text3536">
    <tspan
       x="397.79349"
       y="89.431297"
       id="tspan3538">PSNR</tspan>
  </text>
  <g
     transform="matrix(0.32145773,0,0,0.32145773,218.25845,19.940157)"
     id="g3540">
    <line
       style="fill:none;stroke:#000000;stroke-width:2"
       x1="137.8"
       y1="211.3"
       x2="519.76398"
       y2="211.3"
       id="line3542" />
    <polygon
       style="fill:#000000"
       points="519.764,211.3 517.264,206.3 527.264,211.3 517.264,216.3 "
       id="polygon3544" />
    <polygon
       style="fill:none;stroke:#000000;stroke-width:2"
       points="519.764,211.3 517.264,206.3 527.264,211.3 517.264,216.3 "
       id="polygon3546" />
  </g>
  <g
     transform="matrix(0.32145773,0,0,0.32145773,218.25845,19.940157)"
     id="g3548">
    <line
       style="fill:none;stroke:#000000;stroke-width:2"
       x1="136.8"
       y1="131.3"
       x2="519.76398"
       y2="131.3"
       id="line3550" />
    <polygon
       style="fill:#000000"
       points="519.764,131.3 517.264,126.3 527.264,131.3 517.264,136.3 "
       id="polygon3552" />
    <polygon
       style="fill:none;stroke:#000000;stroke-width:2"
       points="519.764,131.3 517.264,126.3 527.264,131.3 517.264,136.3 "
       id="polygon3554" />
  </g>
  <g
     transform="matrix(0.32145773,0,0,0.32145773,218.25845,19.940157)"
     id="g3556">
    <line
       style="fill:none;stroke:#000000;stroke-width:2"
       x1="475"
       y1="171.3"
       x2="519.76398"
       y2="171.3"
       id="line3558" />
    <polygon
       style="fill:#000000"
       points="519.764,171.3 517.264,166.3 527.264,171.3 517.264,176.3 "
       id="polygon3560" />
    <polygon
       style="fill:none;stroke:#000000;stroke-width:2"
       points="519.764,171.3 517.264,166.3 527.264,171.3 517.264,176.3 "
       id="polygon3562" />
  </g>
  <text
     style="font-size:4.53612185px;font-style:italic;font-weight:normal;text-anchor:middle;fill:#000000;font-family:Bitstream Vera Serif"
     x="382.20279"
     y="37.25869"
     id="text3564">
    <tspan
       x="382.20279"
       y="37.25869"
       id="tspan3566">Signal vidéo</tspan>
  </text>
  <g
     transform="matrix(0.32145773,0,0,0.32145773,218.25845,19.940157)"
     id="g3568">
    <polyline
       style="fill:none;stroke:#000000;stroke-width:2"
       points="459,61 459,61 558,61 558,97.5139 "
       id="polyline3570" />
    <polygon
       style="fill:#000000"
       points="558,97.5139 563,95.0139 558,105.014 553,95.0139 "
       id="polygon3572" />
    <polygon
       style="fill:none;stroke:#000000;stroke-width:2"
       points="558,97.5139 563,95.0139 558,105.014 553,95.0139 "
       id="polygon3574" />
  </g>
  <text
     style="font-size:4.53612185px;font-style:italic;font-weight:normal;text-anchor:start;fill:#000000;font-family:Bitstream Vera Serif"
     x="267.76382"
     y="59.800915"
     id="text3576">
    <tspan
       x="267.76382"
       y="59.800915"
       id="tspan3578">Signal vidéo erroné</tspan>
  </text>
  <text
     style="font-size:4.53612185px;font-style:italic;font-weight:normal;text-anchor:start;fill:#000000;font-family:Bitstream Vera Serif"
     x="268.72821"
     y="85.839005"
     id="text3580">
    <tspan
       x="268.72821"
       y="85.839005"
       id="tspan3582">Signal vidéo calqué</tspan>
  </text>
  <g
     transform="matrix(0.32145773,0,0,0.32145773,218.25845,19.940157)"
     id="g3584">
    <line
       style="fill:none;stroke:#000000;stroke-width:2"
       x1="587.5"
       y1="131.3"
       x2="810.26398"
       y2="131.013"
       id="line3586" />
    <polygon
       style="fill:#000000"
       points="810.264,131.013 807.757,126.016 817.764,131.003 807.77,136.016 "
       id="polygon3588" />
    <polygon
       style="fill:none;stroke:#000000;stroke-width:2"
       points="810.264,131.013 807.757,126.016 817.764,131.003 807.77,136.016 "
       id="polygon3590" />
  </g>
  <g
     transform="matrix(0.32145773,0,0,0.32145773,218.25845,19.940157)"
     id="g3592">
    <line
       style="fill:none;stroke:#000000;stroke-width:2"
       x1="587.5"
       y1="171.3"
       x2="810.26398"
       y2="170.054"
       id="line3594" />
    <polygon
       style="fill:#000000"
       points="810.264,170.054 807.736,165.068 817.764,170.013 807.792,175.068 "
       id="polygon3596" />
    <polygon
       style="fill:none;stroke:#000000;stroke-width:2"
       points="810.264,170.054 807.736,165.068 817.764,170.013 807.792,175.068 "
       id="polygon3598" />
  </g>
  <g
     transform="matrix(0.32145773,0,0,0.32145773,218.25845,19.940157)"
     id="g3600">
    <line
       style="fill:none;stroke:#000000;stroke-width:2"
       x1="587.5"
       y1="211.3"
       x2="811.26398"
       y2="211.013"
       id="line3602" />
    <polygon
       style="fill:#000000"
       points="811.264,211.013 808.758,206.016 818.764,211.003 808.77,216.016 "
       id="polygon3604" />
    <polygon
       style="fill:none;stroke:#000000;stroke-width:2"
       points="811.264,211.013 808.758,206.016 818.764,211.003 808.77,216.016 "
       id="polygon3606" />
  </g>
  <text
     style="font-size:4.53612185px;font-style:italic;font-weight:normal;text-anchor:start;fill:#000000;font-family:Bitstream Vera Serif"
     x="415.95584"
     y="59.800915"
     id="text3608">
    <tspan
       x="415.95584"
       y="59.800915"
       id="tspan3610">PSNR vidéo erroné</tspan>
  </text>
  <text
     style="font-size:4.53612185px;font-style:italic;font-weight:normal;text-anchor:start;fill:#000000;font-family:Bitstream Vera Serif"
     x="415.95584"
     y="72.659233"
     id="text3612">
    <tspan
       x="415.95584"
       y="72.659233"
       id="tspan3614">PSNR approche sélective</tspan>
  </text>
  <text
     style="font-size:4.53612185px;font-style:italic;font-weight:normal;text-anchor:start;fill:#000000;font-family:Bitstream Vera Serif"
     x="415.95584"
     y="85.51754"
     id="text3620">
    <tspan
       x="415.95584"
       y="85.51754"
       id="tspan3622">PSNR vidéo calqué</tspan>
  </text>
  <line
     style="fill:none;stroke:#000000;stroke-width:0.64291549"
     x1="333.50189"
     y1="66.487236"
     x2="333.50189"
     y2="83.524506"
     id="line3632" />
  <rect
     style="fill:none;stroke:none"
     id="rect6087"
     width="501.72897"
     height="68.551399"
     x="46.297211"
     y="29.011698" />
  <g
     id="g2839"
     transform="matrix(0.31640625,0,0,0.31640625,31.8125,19.923489)"
     style="stroke-width:1.78392327;stroke-miterlimit:4;stroke-dasharray:none">
    <rect
       style="fill:#ffffff;stroke-width:1.78392327;stroke-miterlimit:4;stroke-dasharray:none"
       x="176"
       y="33.950001"
       width="94"
       height="53"
       id="rect2841" />
    <rect
       style="fill:none;stroke:#000000;stroke-width:1.78392327;stroke-miterlimit:4;stroke-dasharray:none"
       x="176"
       y="33.950001"
       width="94"
       height="53"
       id="rect2843" />
  </g>
  <text
     style="font-size:12.80000019px;font-style:normal;font-weight:normal;text-anchor:start;fill:#000000;font-family:sanserif"
     x="200.42026"
     y="259.09067"
     id="text2845">
    <tspan
       x="200.42026"
       y="259.09067"
       id="tspan2847" />
  </text>
  <text
     style="font-size:4.46483994px;font-style:normal;font-weight:normal;text-anchor:middle;fill:#000000;font-family:Bitstream Vera Serif"
     x="102.3711"
     y="37.802208"
     id="text2849">
    <tspan
       x="102.3711"
       y="37.802208"
       id="tspan2851">Encodeur</tspan>
    <tspan
       x="102.3711"
       y="43.383217"
       id="tspan2853">H.264</tspan>
  </text>
  <text
     style="font-size:4.46483994px;font-style:italic;font-weight:normal;text-anchor:middle;fill:#000000;font-family:Bitstream Vera Serif"
     x="63.769516"
     y="37.096428"
     id="text2855">
    <tspan
       x="63.769516"
       y="37.096428"
       id="tspan2857">Signal vidéo</tspan>
  </text>
  <g
     id="g2859"
     transform="matrix(0.31640625,0,0,0.31640625,31.8125,19.923489)"
     style="stroke-width:1.78392327;stroke-miterlimit:4;stroke-dasharray:none">
    <polyline
       style="fill:none;stroke:#000000;stroke-width:1.78392327;stroke-miterlimit:4;stroke-dasharray:none"
       points="48,60.45 143.997,60.45 143.997,60.45 165.266,60.45 "
       id="polyline2861" />
    <polygon
       style="fill:#000000;stroke-width:1.78392327;stroke-miterlimit:4;stroke-dasharray:none"
       points="165.266,60.45 162.766,55.45 172.766,60.45 162.766,65.45 "
       id="polygon2863" />
    <polygon
       style="fill:none;stroke:#000000;stroke-width:1.78392327;stroke-miterlimit:4;stroke-dasharray:none"
       points="162.766,55.45 172.766,60.45 162.766,65.45 165.266,60.45 "
       id="polygon2865" />
  </g>
  <g
     id="g2867"
     transform="matrix(0.31640625,0,0,0.31640625,31.8125,19.923489)"
     style="stroke-width:1.78392327;stroke-miterlimit:4;stroke-dasharray:none">
    <rect
       style="fill:#ffffff;stroke-width:1.78392327;stroke-miterlimit:4;stroke-dasharray:none"
       x="342.70001"
       y="121.55"
       width="66.300003"
       height="24.9"
       id="rect2869" />
    <rect
       style="fill:none;stroke:#000000;stroke-width:1.78392327;stroke-miterlimit:4;stroke-dasharray:none"
       x="342.70001"
       y="121.55"
       width="66.300003"
       height="24.9"
       id="rect2871" />
  </g>
  <text
     style="font-size:4.46483994px;font-style:normal;font-weight:normal;text-anchor:middle;fill:#000000;font-family:Bitstream Vera Serif"
     x="150.7338"
     y="63.864399"
     id="text2873">
    <tspan
       x="150.7338"
       y="63.864399"
       id="tspan2875">Erreur</tspan>
  </text>
  <g
     id="g2877"
     transform="matrix(0.31640625,0,0,0.31640625,31.8125,19.923489)"
     style="stroke-width:1.78392327;stroke-miterlimit:4;stroke-dasharray:none">
    <rect
       style="fill:#ffffff;stroke-width:1.78392327;stroke-miterlimit:4;stroke-dasharray:none"
       x="596.70001"
       y="33.950001"
       width="128.804"
       height="53"
       id="rect2879" />
    <rect
       style="fill:none;stroke:#000000;stroke-width:1.78392327;stroke-miterlimit:4;stroke-dasharray:none"
       x="596.70001"
       y="33.950001"
       width="128.804"
       height="53"
       id="rect2881" />
  </g>
  <text
     style="font-size:4.46483994px;font-style:normal;font-weight:normal;text-anchor:middle;fill:#000000;font-family:Bitstream Vera Serif"
     x="240.98935"
     y="37.802208"
     id="text2883">
    <tspan
       x="240.98935"
       y="37.802208"
       id="tspan2885">Décodeur</tspan>
    <tspan
       x="240.98935"
       y="43.383217"
       id="tspan2887">H.264</tspan>
  </text>
  <g
     id="g2889"
     transform="matrix(0.31640625,0,0,0.31640625,31.8125,19.923489)"
     style="stroke-width:1.78392327;stroke-miterlimit:4;stroke-dasharray:none">
    <rect
       style="fill:#ffffff;stroke-width:1.78392327;stroke-miterlimit:4;stroke-dasharray:none"
       x="597.70001"
       y="107.5"
       width="127.804"
       height="53"
       id="rect2891" />
    <rect
       style="fill:none;stroke:#000000;stroke-width:1.78392327;stroke-miterlimit:4;stroke-dasharray:none"
       x="597.70001"
       y="107.5"
       width="127.804"
       height="53"
       id="rect2893" />
  </g>
  <g
     id="g2895"
     transform="matrix(0.31640625,0,0,0.31640625,31.8125,19.923489)"
     style="stroke-width:1.78392327;stroke-miterlimit:4;stroke-dasharray:none">
    <rect
       style="fill:#ffffff;stroke-width:1.78392327;stroke-miterlimit:4;stroke-dasharray:none"
       x="595.70001"
       y="187.5"
       width="129.804"
       height="53"
       id="rect2897" />
    <rect
       style="fill:none;stroke:#000000;stroke-width:1.78392327;stroke-miterlimit:4;stroke-dasharray:none"
       x="595.70001"
       y="187.5"
       width="129.804"
       height="53"
       id="rect2899" />
  </g>
  <text
     style="font-size:4.46483994px;font-style:normal;font-weight:normal;text-anchor:middle;fill:#000000;font-family:Bitstream Vera Serif"
     x="241.14755"
     y="61.074013"
     id="text2901">
    <tspan
       x="241.14755"
       y="61.074013"
       id="tspan2903">Décodeur</tspan>
    <tspan
       x="241.14755"
       y="66.654793"
       id="tspan2905">H.264</tspan>
  </text>
  <text
     style="font-size:4.46483994px;font-style:normal;font-weight:normal;text-anchor:middle;fill:#000000;font-family:Bitstream Vera Serif"
     x="240.83115"
     y="86.386513"
     id="text2907">
    <tspan
       x="240.83115"
       y="86.386513"
       id="tspan2909">Décodeur</tspan>
    <tspan
       x="240.83115"
       y="91.967308"
       id="tspan2911">H.264</tspan>
  </text>
  <g
     id="g2913"
     transform="matrix(0.31640625,0,0,0.31640625,31.8125,19.923489)"
     style="stroke-width:1.78392327;stroke-miterlimit:4;stroke-dasharray:none">
    <polyline
       style="fill:none;stroke:#000000;stroke-width:1.78392327;stroke-miterlimit:4;stroke-dasharray:none"
       points="270,60.45 305.846,60.45 305.846,134 331.956,134 "
       id="polyline2915" />
    <polygon
       style="fill:#000000;stroke-width:1.78392327;stroke-miterlimit:4;stroke-dasharray:none"
       points="331.956,134 329.456,129 339.456,134 329.456,139 "
       id="polygon2917" />
    <polygon
       style="fill:none;stroke:#000000;stroke-width:1.78392327;stroke-miterlimit:4;stroke-dasharray:none"
       points="329.456,129 339.456,134 329.456,139 331.956,134 "
       id="polygon2919" />
  </g>
  <g
     id="g2921"
     transform="matrix(0.31640625,0,0,0.31640625,31.8125,19.923489)"
     style="stroke-width:1.78392327;stroke-miterlimit:4;stroke-dasharray:none">
    <polyline
       style="fill:none;stroke:#000000;stroke-width:1.78392327;stroke-miterlimit:4;stroke-dasharray:none"
       points="409,134 409,134 586.956,134 "
       id="polyline2923" />
    <polygon
       style="fill:#000000;stroke-width:1.78392327;stroke-miterlimit:4;stroke-dasharray:none"
       points="586.956,134 584.456,129 594.456,134 584.456,139 "
       id="polygon2925" />
    <polygon
       style="fill:none;stroke:#000000;stroke-width:1.78392327;stroke-miterlimit:4;stroke-dasharray:none"
       points="584.456,129 594.456,134 584.456,139 586.956,134 "
       id="polygon2927" />
  </g>
  <g
     id="g2929"
     transform="matrix(0.31640625,0,0,0.31640625,31.8125,19.923489)"
     style="stroke-width:1.78392327;stroke-miterlimit:4;stroke-dasharray:none">
    <rect
       style="fill:#ffffff;stroke-width:1.78392327;stroke-miterlimit:4;stroke-dasharray:none"
       x="481.70001"
       y="193.55"
       width="71.300003"
       height="40.900002"
       id="rect2931" />
    <rect
       style="fill:none;stroke:#000000;stroke-width:1.78392327;stroke-miterlimit:4;stroke-dasharray:none"
       x="481.70001"
       y="193.55"
       width="71.300003"
       height="40.900002"
       id="rect2933" />
  </g>
  <g
     id="g2935"
     transform="matrix(0.31640625,0,0,0.31640625,31.8125,19.923489)"
     style="stroke-width:1.78392327;stroke-miterlimit:4;stroke-dasharray:none">
    <polyline
       style="fill:none;stroke:#000000;stroke-width:1.78392327;stroke-miterlimit:4;stroke-dasharray:none"
       points="409,134 445.35,134 445.35,214 471.964,214 "
       id="polyline2937" />
    <polygon
       style="fill:#000000;stroke-width:1.78392327;stroke-miterlimit:4;stroke-dasharray:none"
       points="471.964,214 469.464,209 479.464,214 469.464,219 "
       id="polygon2939" />
    <polygon
       style="fill:none;stroke:#000000;stroke-width:1.78392327;stroke-miterlimit:4;stroke-dasharray:none"
       points="469.464,209 479.464,214 469.464,219 471.964,214 "
       id="polygon2941" />
  </g>
  <text
     style="font-size:4.46483994px;font-style:normal;font-weight:normal;text-anchor:middle;fill:#000000;font-family:Bitstream Vera Serif"
     x="195.50529"
     y="86.386513"
     id="text2943">
    <tspan
       x="195.50529"
       y="86.386513"
       id="tspan2945">Pertes</tspan>
    <tspan
       x="195.50529"
       y="91.967308"
       id="tspan2947">RTP</tspan>
  </text>
  <g
     id="g2949"
     transform="matrix(0.31640625,0,0,0.31640625,31.8125,19.923489)"
     style="stroke-width:1.78392327;stroke-miterlimit:4;stroke-dasharray:none">
    <polyline
       style="fill:none;stroke:#000000;stroke-width:1.78392327;stroke-miterlimit:4;stroke-dasharray:none"
       points="554.009,214 554.009,214 584.956,214 "
       id="polyline2951" />
    <polygon
       style="fill:#000000;stroke-width:1.78392327;stroke-miterlimit:4;stroke-dasharray:none"
       points="584.956,214 582.456,209 592.456,214 582.456,219 "
       id="polygon2953" />
    <polygon
       style="fill:none;stroke:#000000;stroke-width:1.78392327;stroke-miterlimit:4;stroke-dasharray:none"
       points="582.456,209 592.456,214 582.456,219 584.956,214 "
       id="polygon2955" />
  </g>
  <g
     id="g2957"
     transform="matrix(0.31640625,0,0,0.31640625,31.8125,19.923489)"
     style="stroke-width:1.78392327;stroke-miterlimit:4;stroke-dasharray:none">
    <line
       style="fill:none;stroke:#000000;stroke-width:1.78392327;stroke-miterlimit:4;stroke-dasharray:none"
       x1="270"
       y1="60.450001"
       x2="586.96399"
       y2="60.450001"
       id="line2959" />
    <polygon
       style="fill:#000000;stroke-width:1.78392327;stroke-miterlimit:4;stroke-dasharray:none"
       points="586.964,60.45 584.464,55.45 594.464,60.45 584.464,65.45 "
       id="polygon2961" />
    <polygon
       style="fill:none;stroke:#000000;stroke-width:1.78392327;stroke-miterlimit:4;stroke-dasharray:none"
       points="584.464,55.45 594.464,60.45 584.464,65.45 586.964,60.45 "
       id="polygon2963" />
  </g>
  <text
     style="font-size:12.80000019px;font-style:normal;font-weight:normal;text-anchor:start;fill:#000000;font-family:sanserif"
     x="626.42023"
     y="424.04068"
     id="text2965">
    <tspan
       x="626.42023"
       y="424.04068"
       id="tspan2967" />
  </text>
  <text
     style="font-size:12.80000019px;font-style:normal;font-weight:normal;text-anchor:start;fill:#000000;font-family:sanserif"
     x="606.92023"
     y="430.04068"
     id="text2969">
    <tspan
       x="606.92023"
       y="430.04068"
       id="tspan2971" />
  </text>
  <text
     style="font-size:14.1111002px;font-style:normal;font-weight:normal;text-anchor:start;fill:#000000;font-family:Bitstream Vera Serif"
     x="642.92023"
     y="334.04065"
     id="text2973">
    <tspan
       x="642.92023"
       y="334.04065"
       id="tspan2975" />
  </text>
  <text
     style="font-size:12.80000019px;font-style:normal;font-weight:normal;text-anchor:start;fill:#000000;font-family:sanserif"
     x="648.92023"
     y="429.04068"
     id="text2977">
    <tspan
       x="648.92023"
       y="429.04068"
       id="tspan2979" />
  </text>
  <text
     style="font-size:12.80000019px;font-style:normal;font-weight:normal;text-anchor:start;fill:#000000;font-family:sanserif"
     x="656.92224"
     y="433.14066"
     id="text2981">
    <tspan
       x="656.92224"
       y="433.14066"
       id="tspan2983" />
  </text>
  <text
     style="font-size:12.80000019px;font-style:normal;font-weight:normal;text-anchor:start;fill:#000000;font-family:sanserif"
     x="68.420227"
     y="267.04068"
     id="text2985">
    <tspan
       x="68.420227"
       y="267.04068"
       id="tspan2987" />
  </text>
  <text
     style="font-size:12.80000019px;font-style:normal;font-weight:normal;text-anchor:start;fill:#000000;font-family:sanserif"
     x="73.420227"
     y="250.04071"
     id="text2989">
    <tspan
       x="73.420227"
       y="250.04071"
       id="tspan2991" />
  </text>
  <text
     style="font-size:12.80000019px;font-style:normal;font-weight:normal;text-anchor:start;fill:#000000;font-family:sanserif"
     x="112.42023"
     y="240.04071"
     id="text2993">
    <tspan
       x="112.42023"
       y="240.04071"
       id="tspan2995" />
  </text>
  <text
     style="font-size:12.80000019px;font-style:normal;font-weight:normal;text-anchor:start;fill:#000000;font-family:sanserif"
     x="117.42023"
     y="247.04071"
     id="text2997">
    <tspan
       x="117.42023"
       y="247.04071"
       id="tspan2999" />
  </text>
  <text
     style="font-size:12.80000019px;font-style:normal;font-weight:normal;text-anchor:start;fill:#000000;font-family:sanserif"
     x="118.42023"
     y="250.04071"
     id="text3001">
    <tspan
       x="118.42023"
       y="250.04071"
       id="tspan3003" />
  </text>
  <g
     id="g3005"
     transform="matrix(0.31640625,0,0,0.31640625,31.8125,19.923489)"
     style="stroke-width:1.78392327;stroke-miterlimit:4;stroke-dasharray:none">
    <line
       style="fill:none;stroke:#000000;stroke-width:1.78392327;stroke-miterlimit:4;stroke-dasharray:none"
       x1="725.50403"
       y1="60.450001"
       x2="933.26398"
       y2="61.357498"
       id="line3007" />
    <polygon
       style="fill:#000000;stroke-width:1.78392327;stroke-miterlimit:4;stroke-dasharray:none"
       points="933.264,61.3575 930.786,56.3466 940.764,61.3902 930.742,66.3465 "
       id="polygon3009" />
    <polygon
       style="fill:none;stroke:#000000;stroke-width:1.78392327;stroke-miterlimit:4;stroke-dasharray:none"
       points="930.786,56.3466 940.764,61.3902 930.742,66.3465 933.264,61.3575 "
       id="polygon3011" />
  </g>
  <text
     style="font-size:4.46483994px;font-style:italic;font-weight:normal;text-anchor:start;fill:#000000;font-family:Bitstream Vera Serif"
     x="267.53519"
     y="37.452385"
     id="text3029">
    <tspan
       x="267.53519"
       y="37.452385"
       id="tspan3031">Signal vidéo sans erreur</tspan>
  </text>
  <text
     style="font-size:12.80000019px;font-style:normal;font-weight:normal;text-anchor:start;fill:#000000;font-family:sanserif"
     x="879.42023"
     y="247.04071"
     id="text3041">
    <tspan
       x="879.42023"
       y="247.04071"
       id="tspan3043" />
  </text>
  <text
     style="font-size:12.80000019px;font-style:normal;font-weight:normal;text-anchor:start;fill:#000000;font-family:sanserif"
     x="641.42023"
     y="352.04065"
     id="text3045">
    <tspan
       x="641.42023"
       y="352.04065"
       id="tspan3047" />
  </text>
  <text
     style="font-size:12.80000019px;font-style:normal;font-weight:normal;text-anchor:start;fill:#000000;font-family:sanserif"
     x="639.42023"
     y="433.04068"
     id="text3049">
    <tspan
       x="639.42023"
       y="433.04068"
       id="tspan3051" />
  </text>
  <text
     style="font-size:12.80000019px;font-style:normal;font-weight:normal;text-anchor:start;fill:#000000;font-family:sanserif"
     x="629.42023"
     y="431.04068"
     id="text3053">
    <tspan
       x="629.42023"
       y="431.04068"
       id="tspan3055" />
  </text>
</svg>
